<?xml version="1.0" encoding="utf-8"?>
<!-- Generator: Adobe Illustrator 28.1.0, SVG Export Plug-In . SVG Version: 6.00 Build 0)  -->
<svg version="1.1" id="Layer_1" xmlns="http://www.w3.org/2000/svg" xmlns:xlink="http://www.w3.org/1999/xlink" x="0px" y="0px"
	 viewBox="0 0 600 600" style="enable-background:new 0 0 600 600;" xml:space="preserve">
<style type="text/css">
	.st0{fill:#A1B7B6;}
	.st1{fill:#889E9C;}
	.st2{fill:#F9DCEA;}
	.st3{fill:#F2CCE0;}
	.st4{fill:#5E6664;}
	.st5{fill:#2F423F;}
</style>
<g id="surface1">
	<path class="st0" d="M229.6,110.9L166.9,190l-100.3-1l-55-89.7L81,8.7l113.8,3.9L229.6,110.9z"/>
	<path class="st1" d="M194.9,12.5l34.7,98.4L166.9,190l-100.3-1"/>
	<path class="st2" d="M206.4,139.9L166.9,190l-63.7-1l-34.7-55.9l44.4-57.9l72.3,1.9L206.4,139.9z"/>
	<path class="st3" d="M185.2,77.2l21.2,62.7L166.9,190l-63.7-1"/>
	<path class="st0" d="M370.4,110.9l62.7,79.1l100.3-1l55-89.7L519,8.7l-113.8,3.9L370.4,110.9z"/>
	<path class="st1" d="M405.1,12.5l-34.7,98.4l62.7,79.1l100.3-1"/>
	<path class="st2" d="M393.6,139.9l39.5,50.2l63.7-1l34.7-55.9l-44.4-57.9l-72.3,1.9L393.6,139.9z"/>
	<path class="st3" d="M414.8,77.2l-21.2,62.7l39.5,50.2l63.7-1"/>
	<path class="st1" d="M64.6,182.3L300,65.6l235.4,116.7l28.9,224.8L300,562.4L35.7,407.1L64.6,182.3z"/>
	<path class="st0" d="M64.6,182.3l235.4,1l235.4-1l28.9,224.8L300,562.4L35.7,407.1L64.6,182.3z"/>
	<path class="st1" d="M300,65.6l235.4,116.7l28.9,224.8L300,562.4"/>
	<path class="st4" d="M229.6,309.6l70.4-19.3l70.4,19.3l7.7,178.5L300,522.8l-78.1-34.7L229.6,309.6z"/>
	<path class="st5" d="M300,290.4l70.4,19.3l7.7,178.5L300,522.8l-78.1-34.7"/>
	<path class="st4" d="M218,245c0,12.5-11.6,23.2-26,23.2s-26-10.6-26-23.2s11.6-23.2,26-23.2S218,231.5,218,245z"/>
	<path class="st5" d="M210.3,228.6c10.6,8.7,10.6,24.1,0,32.8c-10.6,8.7-27,8.7-36.7,0"/>
	<path class="st4" d="M434.1,245c0,12.5-11.6,23.2-26,23.2s-26-10.6-26-23.2s11.6-23.2,26-23.2S434.1,231.5,434.1,245z"/>
	<path class="st5" d="M426.4,228.6c10.6,8.7,10.6,24.1,0,32.8c-9.6,8.7-27,8.7-36.7,0"/>
</g>
</svg>
