<?xml version="1.0" encoding="UTF-8"?><svg id="Layer_2" xmlns="http://www.w3.org/2000/svg" viewBox="0 0 567.35 582.67"><defs><style>.cls-1{fill:#f9dcea;}.cls-1,.cls-2,.cls-3,.cls-4,.cls-5,.cls-6,.cls-7,.cls-8,.cls-9{stroke-width:0px;}.cls-2{fill:#5e6664;}.cls-3{fill:#505091;}.cls-4{fill:#889e9c;}.cls-5{fill:#a1b7b6;}.cls-6{fill:#2f423f;}.cls-7{fill:#f2cce0;}.cls-8{fill:#fff;}.cls-9{fill:#6965a8;}</style></defs><g id="Layer_1-2"><g id="surface1"><path class="cls-9" d="M505.35,330c0,139.55-113.13,252.68-252.68,252.68S0,469.54,0,330,113.13,77.32,252.68,77.32s252.68,113.13,252.68,252.68Z"/><path class="cls-3" d="M252.68,77.32c139.75,0,252.68,112.93,252.68,252.68s-112.93,252.68-252.68,252.68"/><path class="cls-5" d="M193.37,170.75l-52.81,66.62-84.5-.81L9.75,161l58.5-76.37,95.87,3.25,29.25,82.87Z"/><path class="cls-4" d="M164.12,87.88l29.25,82.87-52.81,66.62-84.5-.81"/><path class="cls-1" d="M173.87,195.13l-33.31,42.25-53.62-.81-29.25-47.12,37.38-48.75,60.94,1.63,17.87,52.81Z"/><path class="cls-7" d="M155.99,142.32l17.87,52.81-33.31,42.25-53.62-.81"/><path class="cls-5" d="M311.99,170.75l52.81,66.62,84.5-.81,46.31-75.56-58.5-76.37-95.87,3.25-29.25,82.87Z"/><path class="cls-4" d="M341.23,87.88l-29.25,82.87,52.81,66.62,84.5-.81"/><path class="cls-1" d="M331.49,195.13l33.31,42.25,53.62-.81,29.25-47.12-37.38-48.75-60.94,1.63-17.87,52.81Z"/><path class="cls-7" d="M349.36,142.32l-17.87,52.81,33.31,42.25,53.62-.81"/><path class="cls-4" d="M54.43,230.88l198.24-98.31,198.24,98.31,24.37,189.3-222.62,130.81L30.06,420.18l24.37-189.3Z"/><path class="cls-5" d="M54.43,230.88l198.24.81,198.24-.81,24.37,189.3-222.62,130.81L30.06,420.18l24.37-189.3Z"/><path class="cls-4" d="M252.68,132.57l198.24,98.31,24.37,189.3-222.62,130.81"/><path class="cls-2" d="M193.37,338.12l59.31-16.25,59.31,16.25,6.5,150.31-65.81,29.25-65.81-29.25,6.5-150.31Z"/><path class="cls-6" d="M252.68,321.87l59.31,16.25,6.5,150.31-65.81,29.25-65.81-29.25"/><path class="cls-2" d="M183.62,283.68c0,10.56-9.75,19.5-21.94,19.5s-21.93-8.94-21.93-19.5,9.75-19.5,21.93-19.5,21.94,8.13,21.94,19.5Z"/><path class="cls-6" d="M177.12,269.87c8.94,7.31,8.94,20.31,0,27.62-8.94,7.31-22.75,7.31-30.87,0"/><path class="cls-2" d="M365.61,283.68c0,10.56-9.75,19.5-21.93,19.5s-21.94-8.94-21.94-19.5,9.75-19.5,21.94-19.5,21.93,8.13,21.93,19.5Z"/><path class="cls-6" d="M359.11,269.87c8.94,7.31,8.94,20.31,0,27.62-8.13,7.31-22.75,7.31-30.87,0"/></g><rect class="cls-9" x="210.5" y="115.34" width="388.24" height="121.99" rx="25.32" ry="25.32" transform="translate(273.3 -245.05) rotate(49.14)"/><path class="cls-8" d="M305.05,107.61l50.83-43.96,19.22,22.23c2.13,2.46,3.75,4.93,4.85,7.38,1.1,2.46,1.69,4.83,1.76,7.13.08,2.29-.36,4.48-1.3,6.54-.94,2.07-2.4,3.95-4.37,5.66-1.34,1.16-2.83,2.03-4.47,2.63s-3.3.9-4.97.91c-1.67.01-3.33-.26-4.96-.82-1.63-.56-3.1-1.4-4.41-2.53l-.63.55c1.34,1.79,2.3,3.69,2.86,5.69.56,2,.75,3.98.58,5.94-.18,1.96-.72,3.84-1.65,5.64-.92,1.8-2.21,3.42-3.85,4.84-2.23,1.93-4.59,3.27-7.09,4.01-2.5.74-5.03.89-7.61.46-2.58-.44-5.15-1.45-7.7-3.03-2.56-1.58-5.01-3.73-7.34-6.42l-19.74-22.82ZM330.58,120.68c2.66,3.08,5.31,4.88,7.94,5.41,2.64.53,5.15-.24,7.55-2.31,2.35-2.03,3.41-4.39,3.17-7.08-.23-2.69-1.71-5.61-4.43-8.76l-7.98-9.23-14.44,12.49,8.19,9.47ZM344.01,92.5l6.92,8c2.5,2.89,4.96,4.61,7.39,5.16,2.42.55,4.67-.07,6.74-1.86,2.04-1.77,3.03-3.84,2.97-6.21-.06-2.37-1.2-4.84-3.41-7.4l-7.68-8.88-12.93,11.18Z"/><path class="cls-8" d="M377.43,191.29l-29.12-33.67,50.83-43.96,29.12,33.67-9.09,7.86-19.92-23.03-11.87,10.27,18.8,21.73-8.42,7.28-18.8-21.73-12.36,10.69,19.92,23.03-9.09,7.86Z"/><path class="cls-8" d="M397.78,214.82l41.74-36.1-13.19-15.25,9.09-7.86,35.58,41.14-9.09,7.86-13.19-15.25-41.74,36.1-9.2-10.64Z"/><path class="cls-8" d="M465.34,268.45l-15.44-17.86-15.5,6.57-9.23-10.67,66.09-26.31,10.81,12.5-35.56,61.6-9.96-11.52,8.79-14.32ZM460.08,245.78l11.52,13.31,14.48-23.55-.55-.63-25.45,10.87Z"/></g></svg>
